<svg width="64" height="64" viewBox="0 0 64 64" fill="none" xmlns="http://www.w3.org/2000/svg">
  <rect x="4" y="4" width="56" height="56" rx="20" fill="#E0F2FF"/>
  <!-- Left brain -->
  <path
    d="M28 14C23.6 14 20 17.6 20 22v1.3C17.6 24.2 16 26.7 16 29.6c0 2 .7 3.7 1.9 5-1.2 1.3-1.9 3.1-1.9 5 0 4 3.1 7.4 7.1 7.4H28"
    stroke="#2563EB"
    stroke-width="2.6"
    stroke-linecap="round"
    stroke-linejoin="round"
  />
  <!-- Right brain -->
  <path
    d="M36 14c4.4 0 8 3.6 8 8v1.3c2.4.9 4 3.4 4 6.3 0 2-.7 3.7-1.9 5 1.2 1.3 1.9 3.1 1.9 5 0 4-3.1 7.4-7.1 7.4H36"
    stroke="#2563EB"
    stroke-width="2.6"
    stroke-linecap="round"
    stroke-linejoin="round"
  />
  <!-- Interior folds -->
  <path
    d="M28 17v28"
    stroke="#2563EB"
    stroke-width="2.2"
    stroke-linecap="round"
  />
  <path
    d="M32 16v30"
    stroke="#2563EB"
    stroke-width="2.2"
    stroke-linecap="round"
  />
  <path
    d="M36 17v28"
    stroke="#2563EB"
    stroke-width="2.2"
    stroke-linecap="round"
  />
</svg>



